<?xml version="1.0" encoding="UTF-8"?><svg id="Layer_1" xmlns="http://www.w3.org/2000/svg" viewBox="0 0 308 308"><defs><style>.cls-1{fill:#f9f9f9;}.cls-2{fill:#d63207;}</style></defs><rect class="cls-2" width="308" height="308"/><path class="cls-1" d="M55.47,201.04c6.56,12.49,16.87,22.82,28.77,30.28s26.19,12.05,40.52,13.61c15.8,1.73,32.13-.54,47.23-5.33s29.33-12.12,42.36-21.07,24.77-19.04,35.98-29.87c1.37-1.32,2.72-2.65,4.07-3.99,3.35-3.32,3.57-9.45,0-12.73s-9.15-3.54-12.73,0c-9.04,8.95-18.45,17.55-28.52,25.35l1.82-1.41c-11.84,9.14-24.58,17.15-38.38,22.99l2.15-.91c-10.18,4.27-20.84,7.36-31.79,8.87l2.39-.32c-8.97,1.2-18.06,1.31-27.04,.11l2.39,.32c-7.41-1.03-14.64-2.99-21.55-5.87l2.15,.91c-6.58-2.78-12.79-6.35-18.44-10.71l1.82,1.41c-4.8-3.74-9.14-8.03-12.88-12.84l1.41,1.82c-2.35-3.06-4.43-6.3-6.23-9.71-2.19-4.17-8.36-5.78-12.31-3.23-4.25,2.74-5.57,7.85-3.23,12.31h0Z"/><path class="cls-1" d="M88.92,104.69c4.23,0,8.68-1.84,11.67-4.83s5.02-7.56,4.83-11.67-1.59-8.69-4.83-11.67-7.2-4.83-11.67-4.83c-4.23,0-8.68,1.84-11.67,4.83s-5.02,7.56-4.83,11.67,1.59,8.69,4.83,11.67,7.2,4.83,11.67,4.83h0Z"/><path class="cls-1" d="M222,103.37c4.23,0,8.68-1.84,11.67-4.83s5.02-7.56,4.83-11.67-1.59-8.69-4.83-11.67-7.2-4.83-11.67-4.83c-4.23,0-8.68,1.84-11.67,4.83s-5.02,7.56-4.83,11.67,1.59,8.69,4.83,11.67,7.2,4.83,11.67,4.83h0Z"/></svg>