<?xml version="1.0" encoding="UTF-8"?><svg id="Layer_1" xmlns="http://www.w3.org/2000/svg" viewBox="0 0 289.65 83.14"><defs><style>.cls-1{fill:#d63207;}</style></defs><path class="cls-1" d="M0,48.54C0,32.52,0,16.51,0,.49c5.13,0,7.69,0,12.82-.01,3.95,7.86,5.89,12.11,9.74,21.14,2.75,6.48,5.46,14.48,7.45,21.87,.08,.02,.13,.03,.21,.06-.56-8.21-.62-16.37-.45-25.43,.13-7.06,.2-10.6,.33-17.66,4.03,0,6.05,0,10.08-.01-.44,21.31-.88,42.62-1.32,63.93-4.54-1.53-6.8-2.33-11.29-4.02-3.88-10.76-5.82-15.9-9.76-25.54-2.74-6.68-5.77-14.23-8.06-20.64-.09,.02-.13,.03-.21,.05,.22,6.94,.3,14.38,.22,22.95-.06,6.33-.09,9.49-.14,15.81C5.74,51.27,3.82,50.38,0,48.54Z"/><path class="cls-1" d="M60.62,.41c-.28,13.45-.56,26.89-.84,40.34-.25,12.06,2.78,18.93,8.42,20.05,5.78,1.15,9.1-4.5,9.34-17.62,.26-14.26,.53-28.53,.79-42.79,4.38,0,6.57-.01,10.94-.02-.23,14.3-.46,28.6-.7,42.89,.12,12.25-3.57,34.8-21.01,30.55-15.37-3.75-19.64-22.37-18.77-36.04,.26-12.44,.53-24.89,.79-37.33,4.41,0,6.61-.01,11.02-.02Z"/><path class="cls-1" d="M107.97,15.38c-5.23-.11-7.85-.17-13.08-.32,.09-5.88,.13-8.83,.22-14.71,12.43-.02,24.87-.05,37.3-.08-.02,6.17-.04,9.26-.06,15.43-5.33-.03-7.99-.06-13.31-.13-.17,21.72-.35,43.43-.52,65.15-4.51-.37-6.77-.59-11.27-1.1,.24-21.41,.48-42.82,.73-64.24Z"/><path class="cls-1" d="M138.23,.26c9.89-.02,19.78-.04,29.67-.06,.05,6,.07,8.99,.11,14.99-7.49,.11-11.24,.15-18.74,.17,.01,7.45,.02,11.18,.03,18.63,7.05-.04,10.57-.1,17.61-.31,.04,5.95,.06,8.93,.11,14.88-7.07,.28-10.61,.37-17.69,.42,.02,10.93,.03,21.86,.05,32.79-4.52,.05-6.79,.04-11.31-.06,.05-27.16,.11-54.31,.16-81.47Z"/><path class="cls-1" d="M176.18,.18c4.41,0,6.61-.01,11.02-.02,.28,21.31,.56,42.61,.84,63.92,7.84-.83,11.75-1.33,19.55-2.54,.1,5.76,.15,8.64,.26,14.4-10.15,1.98-20.56,3.46-30.86,4.38-.27-26.71-.53-53.43-.8-80.14Z"/><path class="cls-1" d="M242.66,38.79c-7.11,1.26-10.67,1.83-17.83,2.86,.14,6.84,.21,10.26,.35,17.09,8-1.61,11.98-2.52,19.89-4.54,.1,4.93,.16,7.4,.26,12.33-10.1,3.23-20.56,5.97-30.95,8.1-.47-24.84-.94-49.68-1.41-74.52,9.99-.02,19.97-.04,29.96-.05,.1,4.95,.16,7.43,.26,12.38-7.56,.44-11.35,.64-18.93,1,.12,5.98,.18,8.97,.31,14.96,7.15-.7,10.72-1.09,17.84-1.95,.1,4.94,.16,7.41,.26,12.35Z"/><path class="cls-1" d="M277.57,54.53c-1.73-3.22-2.6-4.9-4.36-8.4-1.8-3.33-2.97-6-4.36-9.02-.06,.01-.08,.02-.14,.04-.94,3.61-2.09,6.98-3.49,11.59-1.5,4.8-2.25,7.26-3.75,12.25-4.89,1.82-7.35,2.68-12.29,4.29,4.16-11.89,8.53-23.72,13.22-35.41-5-9.8-9.54-19.8-14.07-29.83,5.04,0,7.56-.01,12.6-.02,1.78,4.43,2.67,6.59,4.43,10.8,1.49,3.5,2.61,6.24,3.8,9.34,.06,0,.09-.01,.14-.02,1.08-3.84,1.97-6.48,3.15-9.83,1.58-4.24,2.37-6.3,3.97-10.3,5.01,0,7.52,0,12.53-.01-4.95,8.67-9.4,17.82-13.36,26.97,5.79,10.15,8.63,14.63,14.08,22.04-4.8,2.31-7.22,3.41-12.09,5.51Z"/></svg>